<svg xmlns="http://www.w3.org/2000/svg" xmlns:xlink="http://www.w3.org/1999/xlink" viewBox="0 0 1433.32 304.62"><defs><style>.cls-1{isolation:isolate;}.cls-2{fill:#343f42;}.cls-3{fill:url(#Degradado_sin_nombre_7);}.cls-4{mix-blend-mode:lighten;fill:url(#Degradado_sin_nombre_203);}.cls-5{fill:#fff;}</style><linearGradient id="Degradado_sin_nombre_7" x1="26.31" y1="164.45" x2="349.18" y2="164.45" gradientUnits="userSpaceOnUse"><stop offset="0" stop-color="#007073"/><stop offset="1" stop-color="#008f97"/></linearGradient><linearGradient id="Degradado_sin_nombre_203" x1="-10.71" y1="154.89" x2="316.38" y2="154.89" gradientTransform="matrix(0.98, 0.27, -0.27, 0.93, 46.03, -36.51)" gradientUnits="userSpaceOnUse"><stop offset="0" stop-color="#9fca79"/><stop offset="0.95" stop-color="#568b2f"/></linearGradient></defs><g class="cls-1"><g id="Capa_2" data-name="Capa 2"><g id="Capa_5" data-name="Capa 5"><path class="cls-2" d="M439.66,142.22a34.58,34.58,0,0,0-6.85-.68c-11.64,0-21.75,5.65-21.75,23.79v38.53H388.29V119.62h22.09v12.5c5.14-11.13,16.78-13.18,24-13.18a52.48,52.48,0,0,1,5.31.34Z"/><path class="cls-2" d="M521.83,179.72c-4.28,14.55-17.63,26.7-38.35,26.7-23.11,0-43.48-16.6-43.48-45,0-26.88,19.86-44.35,41.43-44.35,26,0,41.6,16.61,41.6,43.66,0,3.25-.34,6.68-.34,7H462.43c.51,11.13,9.92,19.18,21.22,19.18,10.62,0,16.44-5.31,19.18-12.84ZM500.6,152.15c-.34-8.39-5.82-16.6-18.83-16.6-11.81,0-18.32,8.9-18.83,16.6Z"/><path class="cls-2" d="M544.77,176.12c.52,6.68,5.48,12.84,15.41,12.84,7.54,0,11.13-3.94,11.13-8.39,0-3.77-2.57-6.85-9.07-8.22l-11.13-2.56c-16.27-3.6-23.63-13.36-23.63-25.17,0-15.07,13.36-27.57,31.5-27.57,24,0,32,15.24,33,24.32l-19,4.28c-.68-5-4.28-11.3-13.87-11.3-6,0-10.78,3.59-10.78,8.39,0,4.1,3.08,6.67,7.7,7.53l12,2.57c16.6,3.42,25,13.52,25,25.85,0,13.69-10.61,27.73-32.7,27.73-25.34,0-34.07-16.43-35.09-26Z"/><path class="cls-2" d="M678,179.72c-4.28,14.55-17.63,26.7-38.35,26.7-23.11,0-43.48-16.6-43.48-45,0-26.88,19.86-44.35,41.43-44.35,26,0,41.6,16.61,41.6,43.66,0,3.25-.34,6.68-.34,7H618.56c.52,11.13,9.93,19.18,21.23,19.18,10.62,0,16.44-5.31,19.18-12.84Zm-21.23-27.57c-.34-8.39-5.82-16.6-18.83-16.6-11.81,0-18.32,8.9-18.83,16.6Z"/><path class="cls-2" d="M708.62,155.4l20.71-3.08c4.8-.68,6.34-3.08,6.34-6,0-6-4.63-11-14.21-11-9.93,0-15.41,6.34-16.1,13.7l-20.2-4.28c1.37-13.18,13.53-27.74,36.13-27.74,26.7,0,36.63,15.07,36.63,32V190.5a95,95,0,0,0,1,13.36H738.06a57.52,57.52,0,0,1-.85-10.11c-4.28,6.68-12.33,12.5-24.83,12.5-18,0-28.93-12.15-28.93-25.34C683.45,165.85,694.58,157.46,708.62,155.4Zm27,14.39V166l-19,2.91c-5.82.86-10.44,4.11-10.44,10.61,0,5,3.59,9.76,11,9.76C726.76,189.3,735.67,184.68,735.67,169.79Z"/><path class="cls-2" d="M823.66,142.22a34.44,34.44,0,0,0-6.85-.68c-11.64,0-21.74,5.65-21.74,23.79v38.53H772.3V119.62h22.09v12.5c5.13-11.13,16.78-13.18,24-13.18a52.09,52.09,0,0,1,5.3.34Z"/><path class="cls-2" d="M846.77,161.74c0,15.24,9.93,23.8,21.58,23.8s17.46-7.71,19.34-14.21l20,6.67c-3.76,14-17,28.42-39.37,28.42-24.83,0-44.34-18.83-44.34-44.68,0-26,19.17-44.69,43.65-44.69,22.94,0,36,14.21,39.55,28.42l-20.37,6.85c-2.06-7-7.37-14.21-18.66-14.21C856.53,138.11,846.77,146.5,846.77,161.74Z"/><path class="cls-2" d="M938.71,203.86H915.94V79.9h22.77v46.74c5.48-6.5,14.72-9.24,22.77-9.24,21.4,0,31.33,14.89,31.33,33.38v53.08H970V154.72c0-9.42-4.62-16.78-15.58-16.78-9.59,0-15.24,7.19-15.75,16.44Z"/><path class="cls-2" d="M1052.22,204.71c1.2,11.47,9.93,20.2,22.42,20.2,17.3,0,25.17-8.9,25.17-26.7V186.39c-3.94,7.54-12.84,13.53-25.17,13.53-21.91,0-37.83-16.61-37.83-39.89,0-22.26,15.24-40.06,37.83-40.06,12.67,0,21.23,4.79,25.34,13V121.51h15.93v76.18c0,20.89-10.28,41.26-41.27,41.26-20.54,0-36-13-38-30.64ZM1100.5,160c0-15.92-9.59-26.37-23.46-26.37-14.21,0-23.8,10.45-23.8,26.37,0,16.09,9.25,26.36,23.8,26.36C1090.91,186.39,1100.5,176,1100.5,160Z"/><path class="cls-2" d="M1176,137.77a50.68,50.68,0,0,0-7-.51c-13.53,0-22.6,7.19-22.6,25.33v41.27h-16.09V121.51H1146v14.38c6-12.67,16.26-15.75,24.65-15.75a30.52,30.52,0,0,1,5.31.51Z"/><path class="cls-2" d="M1258.35,162.59c0,25.17-17.47,43.83-42.12,43.83s-42.12-18.66-42.12-43.83c0-25,17.47-43.65,42.12-43.65S1258.35,137.6,1258.35,162.59Zm-16.44,0c0-19-12-29.27-25.68-29.27s-25.68,10.27-25.68,29.27c0,19.18,12,29.45,25.68,29.45S1241.91,181.77,1241.91,162.59Z"/><path class="cls-2" d="M1296.7,206.42c-19.18,0-30.82-14.38-30.82-33V121.51H1282V171c0,11.3,5.14,21.23,18.66,21.23,13,0,19.52-8.56,19.52-21.05V121.51h16.09v67.11a139.25,139.25,0,0,0,.86,15.24h-15.41a73.55,73.55,0,0,1-.68-9.93C1316.56,202.49,1306.28,206.42,1296.7,206.42Z"/><path class="cls-2" d="M1352.34,236.38V121.51h15.58v12.84c4.45-8.22,14.21-14.73,27.56-14.73,24.65,0,37.84,19,37.84,43,0,24.49-14.21,43.49-38.35,43.49-12.67,0-22.26-6-26.71-13.35v43.65Zm40.23-102.55c-14.72,0-24.48,12.33-24.48,28.76,0,16.95,9.76,29.11,24.48,29.11,14.9,0,24.31-12.16,24.31-29.11C1416.88,146.16,1407.64,133.83,1392.57,133.83Z"/></g><g id="Capa_2_copia" data-name="Capa 2 copia"><path class="cls-3" d="M345.67,118.16c15.22,51-20.79,111.3-74.69,148.71S145.06,318.73,93.82,287.75,12.13,180.12,32.91,121.83,125.72,23.38,194.85,24.3,330.44,67,345.67,118.16Z"/><path class="cls-4" d="M191.51,292c-63,9.06-128.35-34.17-163.2-92.55C-6.53,140.8-11.11,67,25.23,29.57c36.32-37.2,113.28-37.86,178.31-10,65.28,27.83,118.89,84.16,115.36,143.11C315.13,221.56,254.53,282.66,191.51,292Z"/><path class="cls-5" d="M126.59,140a40.45,40.45,0,0,1-.82-7.41c0-18.77,14.16-35.73,39-35.73,23.88,0,38.53,15.8,38.53,34.41,0,13.83-7.57,25-20.74,33.1L162,176.92c-4.11,2.63-7.57,5.6-9.22,9.71H204v19.6H125c.16-18.77,6.09-34.09,25.19-45.61l17.62-10.54c9.05-5.43,12.67-11,12.67-18.44,0-7.74-5.43-14.66-16.13-14.66-11.36,0-17,7.74-17,17.79a23.7,23.7,0,0,0,.82,5.93Z"/><path class="cls-5" d="M243.42,125.22h16.3v19.43h-16.3v33.92c0,7.08,3.29,9.38,9.55,9.38a31.72,31.72,0,0,0,6.75-.66v18.12c-2,.82-5.93,2-12.35,2-15.81,0-25.69-9.38-25.69-25v-37.7H197V125.22h14.12c8.56,0,12.51-5.6,12.51-12.85V101h19.76Z"/><path class="cls-5" d="M97.55,85a13.5,13.5,0,1,1-13.5,13.67A13.49,13.49,0,0,1,97.55,85Z"/><path class="cls-5" d="M108.42,123.49v53.92c0,7.08,3.29,9.39,9.55,9.39,2.63,0,16.31-.17,16.31-.17L129,206.23H112.37c-15.81,0-25.69-9.39-25.69-25V123.49Z"/></g></g></g></svg>